<svg width="47" height="55" viewBox="0 0 47 55" fill="none" xmlns="http://www.w3.org/2000/svg">
<path d="M0.571429 0.142855H5.14286V4.71428H0.571429V0.142855ZM5.14286 0.142855H9.71429V4.71428H5.14286V0.142855ZM9.71429 0.142855H14.2857V4.71428H9.71429V0.142855ZM14.2857 0.142855H18.8571V4.71428H14.2857V0.142855ZM18.8571 0.142855H23.4286V4.71428H18.8571V0.142855ZM23.4286 0.142855H28V4.71428H23.4286V0.142855ZM28 0.142855H32.5714V4.71428H28V0.142855ZM32.5714 0.142855H37.1429V4.71428H32.5714V0.142855ZM9.71429 4.71428H14.2857V9.28571H9.71429V4.71428ZM14.2857 4.71428H18.8571V9.28571H14.2857V4.71428ZM18.8571 4.71428H23.4286V9.28571H18.8571V4.71428ZM23.4286 4.71428H28V9.28571H23.4286V4.71428ZM28 4.71428H32.5714V9.28571H28V4.71428ZM32.5714 4.71428H37.1429V9.28571H32.5714V4.71428ZM9.71429 13.8571H14.2857V18.4286H9.71429V13.8571ZM14.2857 13.8571H18.8571V18.4286H14.2857V13.8571ZM14.2857 18.4286H18.8571V23H14.2857V18.4286ZM9.71429 18.4286H14.2857V23H9.71429V18.4286ZM9.71429 27.5714H14.2857V32.1429H9.71429V27.5714ZM14.2857 27.5714H18.8571V32.1429H14.2857V27.5714ZM14.2857 32.1429H18.8571V36.7143H14.2857V32.1429ZM9.71429 36.7143H14.2857V41.2857H9.71429V36.7143ZM14.2857 36.7143H18.8571V41.2857H14.2857V36.7143ZM0.571429 50.4286H5.14286V55H0.571429V50.4286ZM0.571429 18.4286H5.14286V23H0.571429V18.4286ZM5.14286 18.4286H9.71429V23H5.14286V18.4286ZM9.71429 23H14.2857V27.5714H9.71429V23ZM14.2857 23H18.8571V27.5714H14.2857V23ZM0.571429 27.5714H5.14286V32.1429H0.571429V27.5714ZM5.14286 27.5714H9.71429V32.1429H5.14286V27.5714ZM9.71429 32.1429H14.2857V36.7143H9.71429V32.1429ZM5.14286 45.8571H9.71429V50.4286H5.14286V45.8571ZM9.71429 45.8571H14.2857V50.4286H9.71429V45.8571ZM14.2857 45.8571H18.8571V50.4286H14.2857V45.8571ZM18.8571 45.8571H23.4286V50.4286H18.8571V45.8571ZM23.4286 45.8571H28V50.4286H23.4286V45.8571ZM28 45.8571H32.5714V50.4286H28V45.8571ZM32.5714 45.8571H37.1429V50.4286H32.5714V45.8571ZM14.2857 50.4286H18.8571V55H14.2857V50.4286ZM18.8571 50.4286H23.4286V55H18.8571V50.4286ZM23.4286 50.4286H28V55H23.4286V50.4286ZM28 50.4286H32.5714V55H28V50.4286ZM23.4286 36.7143H28V41.2857H23.4286V36.7143ZM23.4286 32.1429H28V36.7143H23.4286V32.1429ZM23.4286 27.5714H28V32.1429H23.4286V27.5714ZM23.4286 23H28V27.5714H23.4286V23ZM23.4286 18.4286H28V23H23.4286V18.4286ZM23.4286 13.8571H28V18.4286H23.4286V13.8571ZM23.4286 9.28571H28V13.8571H23.4286V9.28571ZM37.1429 9.28571H41.7143V13.8571H37.1429V9.28571ZM37.1429 13.8571H41.7143V18.4286H37.1429V13.8571ZM37.1429 18.4286H41.7143V23H37.1429V18.4286ZM37.1429 23H41.7143V27.5714H37.1429V23ZM37.1429 27.5714H41.7143V32.1429H37.1429V27.5714ZM37.1429 32.1429H41.7143V36.7143H37.1429V32.1429ZM41.7143 9.28571H46.2857V13.8571H41.7143V9.28571ZM41.7143 13.8571H46.2857V18.4286H41.7143V13.8571ZM41.7143 18.4286H46.2857V23H41.7143V18.4286ZM41.7143 23H46.2857V27.5714H41.7143V23ZM41.7143 27.5714H46.2857V32.1429H41.7143V27.5714ZM37.1429 0.142855H41.7143V4.71428H37.1429V0.142855ZM37.1429 4.71428H41.7143V9.28571H37.1429V4.71428ZM41.7143 4.71428H46.2857V9.28571H41.7143V4.71428ZM37.1429 36.7143H41.7143V41.2857H37.1429V36.7143ZM41.7143 36.7143H46.2857V41.2857H41.7143V36.7143ZM41.7143 32.1429H46.2857V36.7143H41.7143V32.1429ZM37.1429 41.2857H41.7143V45.8571H37.1429V41.2857Z" fill="#AFD7B1"/>
</svg>
