<svg width="34" height="10" viewBox="0 0 34 10" fill="none" xmlns="http://www.w3.org/2000/svg">
<path d="M0.761905 8.47619H1.52381V9.2381H0.761905V8.47619ZM1.52381 8.47619H2.28571V9.2381H1.52381V8.47619ZM2.28571 8.47619H3.04762V9.2381H2.28571V8.47619ZM3.04762 8.47619H3.80952V9.2381H3.04762V8.47619ZM3.80952 8.47619H4.57143V9.2381H3.80952V8.47619ZM2.28571 9.2381H3.04762V10H2.28571V9.2381ZM3.04762 9.2381H3.80952V10H3.04762V9.2381ZM4.57143 8.47619H5.33333V9.2381H4.57143V8.47619ZM1.52381 7.71429H2.28571V8.47619H1.52381V7.71429ZM1.52381 6.95238H2.28571V7.71429H1.52381V6.95238ZM2.28571 6.95238H3.04762V7.71429H2.28571V6.95238ZM2.28571 7.71429H3.04762V8.47619H2.28571V7.71429ZM2.28571 3.90476H3.04762V4.66667H2.28571V3.90476ZM2.28571 5.42857H3.04762V6.19048H2.28571V5.42857ZM2.28571 6.19048H3.04762V6.95238H2.28571V6.19048ZM1.52381 6.19048H2.28571V6.95238H1.52381V6.19048ZM1.52381 5.42857H2.28571V6.19048H1.52381V5.42857ZM3.04762 3.14286H3.80952V3.90476H3.04762V3.14286ZM3.80952 3.14286H4.57143V3.90476H3.80952V3.14286ZM4.57143 3.14286H5.33333V3.90476H4.57143V3.14286ZM3.80952 3.90476H4.57143V4.66667H3.80952V3.90476ZM4.57143 3.90476H5.33333V4.66667H4.57143V3.90476ZM5.33333 3.90476H6.09524V4.66667H5.33333V3.90476ZM4.57143 5.42857H5.33333V6.19048H4.57143V5.42857ZM5.33333 5.42857H6.09524V6.19048H5.33333V5.42857ZM5.33333 6.19048H6.09524V6.95238H5.33333V6.19048ZM5.33333 6.95238H6.09524V7.71429H5.33333V6.95238ZM4.57143 6.95238H5.33333V7.71429H4.57143V6.95238ZM4.57143 6.19048H5.33333V6.95238H4.57143V6.19048ZM4.57143 7.71429H5.33333V8.47619H4.57143V7.71429ZM5.33333 7.71429H6.09524V8.47619H5.33333V7.71429ZM3.80952 2.38095H4.57143V3.14286H3.80952V2.38095ZM3.04762 2.38095H3.80952V3.14286H3.04762V2.38095ZM2.28571 2.38095H3.04762V3.14286H2.28571V2.38095ZM3.04762 1.61905H3.80952V2.38095H3.04762V1.61905ZM2.28571 1.61905H3.04762V2.38095H2.28571V1.61905ZM1.52381 0.857142H2.28571V1.61905H1.52381V0.857142ZM1.52381 1.61905H2.28571V2.38095H1.52381V1.61905ZM1.52381 4.66667H2.28571V5.42857H1.52381V4.66667ZM2.28571 4.66667H3.04762V5.42857H2.28571V4.66667ZM4.57143 4.66667H5.33333V5.42857H4.57143V4.66667ZM5.33333 4.66667H6.09524V5.42857H5.33333V4.66667ZM6.85565 8.47619H7.61756V9.2381H6.85565V8.47619ZM7.61756 8.47619H8.37946V9.2381H7.61756V8.47619ZM8.37946 8.47619H9.14137V9.2381H8.37946V8.47619ZM9.14137 8.47619H9.90327V9.2381H9.14137V8.47619ZM8.37946 9.2381H9.14137V10H8.37946V9.2381ZM10.6652 8.47619H11.4271V9.2381H10.6652V8.47619ZM11.4271 7.71429H12.189V8.47619H11.4271V7.71429ZM10.6652 7.71429H11.4271V8.47619H10.6652V7.71429ZM10.6652 6.95238H11.4271V7.71429H10.6652V6.95238ZM10.6652 6.19048H11.4271V6.95238H10.6652V6.19048ZM11.4271 6.19048H12.189V6.95238H11.4271V6.19048ZM11.4271 6.95238H12.189V7.71429H11.4271V6.95238ZM7.61756 7.71429H8.37946V8.47619H7.61756V7.71429ZM8.37946 7.71429H9.14137V8.47619H8.37946V7.71429ZM8.37946 6.95238H9.14137V7.71429H8.37946V6.95238ZM7.61756 6.95238H8.37946V7.71429H7.61756V6.95238ZM7.61756 6.19048H8.37946V6.95238H7.61756V6.19048ZM11.4271 5.42857H12.189V6.19048H11.4271V5.42857ZM10.6652 5.42857H11.4271V6.19048H10.6652V5.42857ZM8.37946 5.42857H9.14137V6.19048H8.37946V5.42857ZM7.61756 5.42857H8.37946V6.19048H7.61756V5.42857ZM12.189 4.66667H12.9509V5.42857H12.189V4.66667ZM11.4271 4.66667H12.189V5.42857H11.4271V4.66667ZM10.6652 4.66667H11.4271V5.42857H10.6652V4.66667ZM9.90327 4.66667H10.6652V5.42857H9.90327V4.66667ZM9.14137 3.90476H9.90327V4.66667H9.14137V3.90476ZM9.90327 3.90476H10.6652V4.66667H9.90327V3.90476ZM10.6652 3.90476H11.4271V4.66667H10.6652V3.90476ZM8.37946 6.19048H9.14137V6.95238H8.37946V6.19048ZM8.37946 4.66667H9.14137V5.42857H8.37946V4.66667ZM9.14137 9.2381H9.90327V10H9.14137V9.2381ZM9.90327 8.47619H10.6652V9.2381H9.90327V8.47619ZM15.2388 0.857142H16.0007V1.61905H15.2388V0.857142ZM15.2388 1.61905H16.0007V2.38095H15.2388V1.61905ZM14.4769 1.61905H15.2388V2.38095H14.4769V1.61905ZM14.4769 2.38095H15.2388V3.14286H14.4769V2.38095ZM14.4769 3.14286H15.2388V3.90476H14.4769V3.14286ZM14.4769 3.90476H15.2388V4.66667H14.4769V3.90476ZM14.4769 4.66667H15.2388V5.42857H14.4769V4.66667ZM14.4769 5.42857H15.2388V6.19048H14.4769V5.42857ZM15.2388 4.66667H16.0007V5.42857H15.2388V4.66667ZM15.2388 3.90476H16.0007V4.66667H15.2388V3.90476ZM15.2388 3.14286H16.0007V3.90476H15.2388V3.14286ZM15.2388 2.38095H16.0007V3.14286H15.2388V2.38095ZM15.2388 5.42857H16.0007V6.19048H15.2388V5.42857ZM15.2388 6.19048H16.0007V6.95238H15.2388V6.19048ZM15.2388 6.95238H16.0007V7.71429H15.2388V6.95238ZM15.2388 7.71429H16.0007V8.47619H15.2388V7.71429ZM15.2388 8.47619H16.0007V9.2381H15.2388V8.47619ZM14.4769 8.47619H15.2388V9.2381H14.4769V8.47619ZM14.4769 7.71429H15.2388V8.47619H14.4769V7.71429ZM14.4769 6.95238H15.2388V7.71429H14.4769V6.95238ZM14.4769 6.19048H15.2388V6.95238H14.4769V6.19048ZM14.4769 9.2381H15.2388V10H14.4769V9.2381ZM15.2388 9.2381H16.0007V10H15.2388V9.2381ZM13.715 8.47619H14.4769V9.2381H13.715V8.47619ZM16.0007 8.47619H16.7626V9.2381H16.0007V8.47619ZM17.5246 8.47619H18.2865V9.2381H17.5246V8.47619ZM18.2865 8.47619H19.0484V9.2381H18.2865V8.47619ZM19.0484 8.47619H19.8103V9.2381H19.0484V8.47619ZM18.2865 9.2381H19.0484V10H18.2865V9.2381ZM17.5246 7.71429H18.2865V8.47619H17.5246V7.71429ZM16.7626 6.19048H17.5246V6.95238H16.7626V6.19048ZM16.0007 6.19048H16.7626V6.95238H16.0007V6.19048ZM16.0007 4.66667H16.7626V5.42857H16.0007V4.66667ZM16.7626 3.90476H17.5246V4.66667H16.7626V3.90476ZM17.5246 3.90476H18.2865V4.66667H17.5246V3.90476ZM19.0484 3.90476H19.8103V4.66667H19.0484V3.90476ZM18.2865 4.66667H19.0484V5.42857H18.2865V4.66667ZM17.5246 4.66667H18.2865V5.42857H17.5246V4.66667ZM17.5246 5.42857H18.2865V6.19048H17.5246V5.42857ZM18.2865 5.42857H19.0484V6.19048H18.2865V5.42857ZM17.5246 6.95238H18.2865V7.71429H17.5246V6.95238ZM22.0982 0.857142H22.8601V1.61905H22.0982V0.857142ZM22.0982 1.61905H22.8601V2.38095H22.0982V1.61905ZM21.3363 1.61905H22.0982V2.38095H21.3363V1.61905ZM21.3363 2.38095H22.0982V3.14286H21.3363V2.38095ZM21.3363 3.14286H22.0982V3.90476H21.3363V3.14286ZM21.3363 3.90476H22.0982V4.66667H21.3363V3.90476ZM21.3363 4.66667H22.0982V5.42857H21.3363V4.66667ZM21.3363 5.42857H22.0982V6.19048H21.3363V5.42857ZM22.0982 4.66667H22.8601V5.42857H22.0982V4.66667ZM22.0982 3.90476H22.8601V4.66667H22.0982V3.90476ZM22.0982 3.14286H22.8601V3.90476H22.0982V3.14286ZM22.0982 2.38095H22.8601V3.14286H22.0982V2.38095ZM22.0982 5.42857H22.8601V6.19048H22.0982V5.42857ZM22.0982 6.19048H22.8601V6.95238H22.0982V6.19048ZM22.0982 6.95238H22.8601V7.71429H22.0982V6.95238ZM22.0982 7.71429H22.8601V8.47619H22.0982V7.71429ZM22.0982 8.47619H22.8601V9.2381H22.0982V8.47619ZM21.3363 8.47619H22.0982V9.2381H21.3363V8.47619ZM21.3363 7.71429H22.0982V8.47619H21.3363V7.71429ZM21.3363 6.95238H22.0982V7.71429H21.3363V6.95238ZM21.3363 6.19048H22.0982V6.95238H21.3363V6.19048ZM21.3363 9.2381H22.0982V10H21.3363V9.2381ZM22.0982 9.2381H22.8601V10H22.0982V9.2381ZM20.5744 8.47619H21.3363V9.2381H20.5744V8.47619ZM22.8601 8.47619H23.622V9.2381H22.8601V8.47619ZM24.3839 8.47619H25.1458V9.2381H24.3839V8.47619ZM25.1458 8.47619H25.9077V9.2381H25.1458V8.47619ZM25.9077 8.47619H26.6696V9.2381H25.9077V8.47619ZM25.1458 9.2381H25.9077V10H25.1458V9.2381ZM24.3839 7.71429H25.1458V8.47619H24.3839V7.71429ZM23.622 6.19048H24.3839V6.95238H23.622V6.19048ZM22.8601 6.19048H23.622V6.95238H22.8601V6.19048ZM22.8601 4.66667H23.622V5.42857H22.8601V4.66667ZM23.622 3.90476H24.3839V4.66667H23.622V3.90476ZM24.3839 3.90476H25.1458V4.66667H24.3839V3.90476ZM25.9077 3.90476H26.6696V4.66667H25.9077V3.90476ZM25.1458 4.66667H25.9077V5.42857H25.1458V4.66667ZM24.3839 4.66667H25.1458V5.42857H24.3839V4.66667ZM24.3839 5.42857H25.1458V6.19048H24.3839V5.42857ZM25.1458 5.42857H25.9077V6.19048H25.1458V5.42857ZM24.3839 6.95238H25.1458V7.71429H24.3839V6.95238ZM28.1957 8.47619H28.9576V9.2381H28.1957V8.47619ZM28.9576 8.47619H29.7195V9.2381H28.9576V8.47619ZM29.7195 8.47619H30.4814V9.2381H29.7195V8.47619ZM30.4814 8.47619H31.2433V9.2381H30.4814V8.47619ZM28.9576 9.2381H29.7195V10H28.9576V9.2381ZM29.7195 9.2381H30.4814V10H29.7195V9.2381ZM27.4338 8.47619H28.1957V9.2381H27.4338V8.47619ZM28.1957 7.71429H28.9576V8.47619H28.1957V7.71429ZM28.1957 6.95238H28.9576V7.71429H28.1957V6.95238ZM28.1957 6.19048H28.9576V6.95238H28.1957V6.19048ZM28.9576 7.71429H29.7195V8.47619H28.9576V7.71429ZM28.9576 6.95238H29.7195V7.71429H28.9576V6.95238ZM28.9576 6.19048H29.7195V6.95238H28.9576V6.19048ZM28.9576 5.42857H29.7195V6.19048H28.9576V5.42857ZM31.2433 4.66667H32.0052V5.42857H31.2433V4.66667ZM31.2433 5.42857H32.0052V6.19048H31.2433V5.42857ZM32.0052 5.42857H32.7671V6.19048H32.0052V5.42857ZM31.2433 6.19048H32.0052V6.95238H31.2433V6.19048ZM32.0052 6.19048H32.7671V6.95238H32.0052V6.19048ZM32.0052 6.95238H32.7671V7.71429H32.0052V6.95238ZM31.2433 6.95238H32.0052V7.71429H31.2433V6.95238ZM31.2433 7.71429H32.0052V8.47619H31.2433V7.71429ZM32.0052 7.71429H32.7671V8.47619H32.0052V7.71429ZM31.2433 8.47619H32.0052V9.2381H31.2433V8.47619ZM31.2433 9.2381H32.0052V10H31.2433V9.2381ZM32.0052 9.2381H32.7671V10H32.0052V9.2381ZM32.0052 8.47619H32.7671V9.2381H32.0052V8.47619ZM32.7671 8.47619H33.529V9.2381H32.7671V8.47619ZM29.7195 3.90476H30.4814V4.66667H29.7195V3.90476ZM30.4814 3.90476H31.2433V4.66667H30.4814V3.90476ZM31.2433 3.90476H32.0052V4.66667H31.2433V3.90476ZM32.7671 4.66667H33.529V5.42857H32.7671V4.66667ZM32.0052 4.66667H32.7671V5.42857H32.0052V4.66667ZM28.9576 4.66667H29.7195V5.42857H28.9576V4.66667ZM28.1957 5.42857H28.9576V6.19048H28.1957V5.42857Z" fill="white"/>
</svg>
